<svg width="21" height="20" viewBox="0 0 21 20" fill="none" xmlns="http://www.w3.org/2000/svg">
<path d="M16.6917 10.8165C16.725 10.5498 16.75 10.2832 16.75 9.99984C16.75 9.7165 16.725 9.44984 16.6917 9.18317L18.45 7.80817C18.6083 7.68317 18.65 7.45817 18.55 7.27484L16.8833 4.3915C16.7833 4.20817 16.5583 4.1415 16.375 4.20817L14.3 5.0415C13.8667 4.70817 13.4 4.43317 12.8917 4.22484L12.575 2.0165C12.55 1.8165 12.375 1.6665 12.1667 1.6665H8.83332C8.62499 1.6665 8.44999 1.8165 8.42499 2.0165L8.10832 4.22484C7.59999 4.43317 7.13332 4.7165 6.69999 5.0415L4.62499 4.20817C4.43332 4.13317 4.21666 4.20817 4.11666 4.3915L2.44999 7.27484C2.34165 7.45817 2.39165 7.68317 2.54999 7.80817L4.30832 9.18317C4.27499 9.44984 4.24999 9.72484 4.24999 9.99984C4.24999 10.2748 4.27499 10.5498 4.30832 10.8165L2.54999 12.1915C2.39165 12.3165 2.34999 12.5415 2.44999 12.7248L4.11666 15.6082C4.21666 15.7915 4.44165 15.8582 4.62499 15.7915L6.69999 14.9582C7.13332 15.2915 7.59999 15.5665 8.10832 15.7748L8.42499 17.9832C8.44999 18.1832 8.62499 18.3332 8.83332 18.3332H12.1667C12.375 18.3332 12.55 18.1832 12.575 17.9832L12.8917 15.7748C13.4 15.5665 13.8667 15.2832 14.3 14.9582L16.375 15.7915C16.5667 15.8665 16.7833 15.7915 16.8833 15.6082L18.55 12.7248C18.65 12.5415 18.6083 12.3165 18.45 12.1915L16.6917 10.8165ZM10.5 12.9165C8.89165 12.9165 7.58332 11.6082 7.58332 9.99984C7.58332 8.3915 8.89165 7.08317 10.5 7.08317C12.1083 7.08317 13.4167 8.3915 13.4167 9.99984C13.4167 11.6082 12.1083 12.9165 10.5 12.9165Z" fill="#9298AB"/>
</svg>
